<?xml version="1.0" standalone="no"?>
<!DOCTYPE svg PUBLIC "-//W3C//DTD SVG 20010904//EN"
 "http://www.w3.org/TR/2001/REC-SVG-20010904/DTD/svg10.dtd">
<svg version="1.0" xmlns="http://www.w3.org/2000/svg"
 width="120.000000pt" height="120.000000pt" viewBox="0 0 120.000000 120.000000"
 preserveAspectRatio="xMidYMid meet">

<g transform="translate(0.000000,120.000000) scale(0.100000,-0.100000)"
fill="#000000" stroke="none">
<path d="M554 1139 c-16 -18 -19 -36 -18 -123 1 -55 10 -152 19 -214 11 -68
16 -143 13 -190 -4 -68 -9 -83 -39 -125 -33 -47 -34 -52 -33 -135 1 -85 18
-192 35 -222 5 -9 9 34 9 108 0 74 4 122 10 122 6 0 10 -48 10 -125 0 -77 4
-125 10 -125 6 0 10 46 10 119 0 161 19 169 22 10 2 -87 7 -124 16 -127 9 -3
12 26 12 122 0 77 4 126 10 126 6 0 10 -48 10 -122 0 -76 4 -117 9 -108 15 26
33 141 34 226 2 78 1 84 -32 130 -31 43 -35 56 -39 128 -2 46 3 127 12 189 21
143 21 305 0 335 -19 28 -55 28 -80 1z"/>
<path d="M74 1008 c7 -29 46 -187 86 -351 l74 -298 45 3 46 3 71 320 c39 176
74 332 77 348 7 26 6 27 -37 27 l-44 0 -16 -72 c-9 -40 -33 -154 -54 -252 -21
-99 -41 -175 -44 -170 -3 5 -29 118 -58 252 l-53 242 -53 0 -52 0 12 -52z"/>
<path d="M730 710 l0 -350 48 0 47 0 -3 100 c-3 94 -1 104 23 145 14 25 28 45
30 45 2 0 38 -65 80 -145 l76 -145 55 0 c30 0 54 2 54 5 0 3 -45 88 -100 190
-55 102 -100 188 -100 193 0 7 24 47 142 235 l48 77 -57 0 -58 -1 -95 -162
-95 -162 -3 60 c-2 33 -2 106 0 163 l3 102 -47 0 -48 0 0 -350z"/>
</g>
</svg>
